<svg xmlns="http://www.w3.org/2000/svg" width="500.52" height="653.279" viewBox="0 0 500.52 653.279">
  <g id="Grupo_1" data-name="Grupo 1" transform="translate(0 0)">
    <path id="Trazado_1" data-name="Trazado 1" d="M3003.942-616.445h431.269c-2.112,31.365-4.045,61.943-6.252,92.5-5.285,73.18-10.853,146.34-16.006,219.529-3.293,46.751-35.513,80.48-82.156,81.25q-111.483,1.84-223.016,0c-46.643-.772-78.833-34.539-82.146-81.281Q3015.042-453.892,3003.98-603.3C3003.681-607.425,3003.942-611.589,3003.942-616.445ZM3165.3-349.172q-4.662-67.216-9.339-134.433c-1.565-22.167-3.055-44.344-5.067-66.473-1.207-13.269-11.455-22.115-23.664-21.5-12.189.616-21.232,10.429-21.467,23.713-.092,5.185.489,10.387.861,15.576,4.424,61.781,9.006,123.55,13.229,185.345,1.534,22.443,9.6,33.763,24.716,32.924C3159.911-314.87,3166.339-325.754,3165.3-349.172Zm108.019-2.046-3.693,1.436c4.009,10.376,5.417,23.331,12.592,30.568,13.16,13.27,33.869,2.031,35.786-18.631,2.226-24,3.42-48.1,5.128-72.158,3.216-45.278,6.726-90.535,9.583-135.836.954-15.114-8.767-25.533-22.143-25.738-12.747-.195-21.99,9.087-23.059,23.7Q3280.319-449.554,3273.315-351.218Z" transform="translate(-2968.998 875.524)" fill="#d9000d"/>
    <path id="Trazado_2" data-name="Trazado 2" d="M3096.157-764.771c0-8.621-.214-15.2.037-21.767,1.184-31.058,21.8-53.351,52.7-53.937q75.242-1.428,150.531.046c30.274.629,50.787,22.759,52.167,52.971.318,6.985.047,14,.047,22.682,22.123,0,42.8-.048,63.468.01,37.606.106,58.847,21.362,58.955,59.006.062,21.777.129,43.554-.026,65.33-.135,18.793-7.984,27-26.682,27.01q-223.687.166-447.374-.01c-17.91-.015-26.024-8.326-26.179-26.071-.209-23.669-.3-47.344.016-71.011.422-31.9,22.846-53.885,55.131-54.218C3050.644-764.952,3072.343-764.771,3096.157-764.771Zm210.016-.684c0-6.751-.181-11.942.039-17.117.386-9.068-4-12.741-12.832-12.72q-69.407.169-138.814,0c-8.752-.022-13.323,3.44-12.956,12.593.222,5.52.041,11.057.041,17.246Z" transform="translate(-2973.614 841.2)" fill="#d9000d"/>
  </g>
</svg>
