<svg id="Grupo_1726" data-name="Grupo 1726" xmlns="http://www.w3.org/2000/svg" width="38.597" height="36.88" viewBox="0 0 38.597 36.88">
  <path id="Trazado_5720" data-name="Trazado 5720" d="M3692.093-403.9h38.579v.873q0,9.3,0,18.6c0,2.558-1.733,4.2-4.421,4.205q-14.89,0-29.78,0a4.039,4.039,0,0,1-4.376-4.166q0-9.342,0-18.685Zm16.594,12.674c-1.015-.98-2-1.94-2.993-2.886a1.45,1.45,0,0,0-2.122-.223c-.643.576-.587,1.353.173,2.088q1.786,1.726,3.591,3.434c.946.9,1.513.917,2.51.1q2.777-2.274,5.559-4.543c1.242-1.016,2.49-2.026,3.717-3.059a1.271,1.271,0,0,0,.223-1.9,1.421,1.421,0,0,0-1.994-.113c-.113.083-.214.183-.323.272Z" transform="translate(-3692.076 417.097)" fill="#fff"/>
  <path id="Trazado_5721" data-name="Trazado 5721" d="M3692.02-473.556c0-1.455-.06-2.854.014-4.247a4.028,4.028,0,0,1,4.005-3.593c1.833-.023,3.666,0,5.575,0,.167-1.067-.364-2.551,1.5-2.619.946-.035,1.175.458,1.349,2.561h13.683c.179-1.024-.347-2.612,1.522-2.534,1.65.069,1.189,1.5,1.325,2.591h4.976c2.984,0,4.626,1.57,4.627,4.421,0,1.122,0,2.244,0,3.423Z" transform="translate(-3691.997 484.021)" fill="#fff"/>
</svg>
