<svg xmlns="http://www.w3.org/2000/svg" width="36.503" height="41.496" viewBox="0 0 36.503 41.496">
  <path id="Trazado_10" data-name="Trazado 10" d="M146.541,2740.747c1-6.5,4.027-9.707,9.314-9.832v4.356c-3.6,1.286-4.736,2.656-4.5,5.277a28.583,28.583,0,0,1,4.871-1.212c5.551-.411,10.35,3.979,10.874,9.814a21.88,21.88,0,0,1-5.1,16.631c-1.27,1.514-2.588,3-3.992,4.384a7.039,7.039,0,0,1-7.184,1.938,8.711,8.711,0,0,0-4.1.031,5.854,5.854,0,0,1-5.66-1.064c-4.963-4.368-8.872-9.42-10.006-16.261-.741-4.469-.5-8.665,2.745-12.186a9.588,9.588,0,0,1,11.666-2.363C145.816,2740.421,146.17,2740.579,146.541,2740.747Z" transform="translate(-130.706 -2730.915)" fill="#fff"/>
</svg>
