<svg xmlns="http://www.w3.org/2000/svg" width="573.552" height="575.984" viewBox="0 0 573.552 575.984">
  <g id="Grupo_2" data-name="Grupo 2" transform="translate(0 0)">
    <path id="Trazado_3" data-name="Trazado 3" d="M3685.754-490.463c0-52.451-1.314-104.944.362-157.342,1.755-54.9,49.53-101.685,104.468-102.617,73.793-1.252,147.622-.605,221.435-.556,16.835.01,27.307,9.946,27.224,24.693-.082,14.705-10.607,24.691-27.454,24.812-38.967.282-77.937.1-116.905.1-31.475,0-62.95-.137-94.423.042-39.082.222-65.3,25.43-65.452,64.339q-.585,146.691-.024,293.387c.136,39.364,26.75,65.277,65.954,65.314q146.695.137,293.389,0c39.361-.042,66.125-26.99,66.185-66.521.1-67.821-.014-135.641.064-203.461.021-18.156,11.309-29.082,27.756-27.312,13.125,1.412,21.652,11.645,21.695,26.79.125,42.34.046,84.682.047,127.022,0,26.229.106,52.459-.024,78.687-.323,65.094-49.536,114.221-114.708,114.3q-147.818.175-295.636,0c-63.141-.068-110.7-45.49-114.272-108.806-.1-1.87-.273-3.741-.273-5.611q-.023-73.629-.013-147.256Z" transform="translate(-3685.148 804.69)" fill="#0090df"/>
    <path id="Trazado_4" data-name="Trazado 4" d="M4238.252-723.293c-.855,18.535-7.771,34.222-20.126,47.749q-102.288,112-204.526,224.053c-10.1,11.064-21.053,21.461-30.192,33.267-14.916,19.269-33.689,32.123-56.4,40.6-19.222,7.175-37.733,16.248-56.571,24.454-14.183,6.18-27.975,5.97-39.848-4.665-11.828-10.593-14.021-24.142-9.072-38.988,9.566-28.69,18.967-57.437,28.9-86a42.59,42.59,0,0,1,8.9-14.062q126.054-138.231,252.433-276.167c19.6-21.37,44.19-29.369,72.33-21.7,26.509,7.223,43.909,24.823,51.2,51.571C4237.041-736.76,4237.3-729.934,4238.252-723.293ZM3931.2-501.967l33.02,29.757c3.754-3.645,6.569-6.109,9.08-8.853q64.861-70.9,129.649-141.862c26.016-28.5,52.126-56.907,77.9-85.618,13.044-14.528,7.271-34.6-10.8-38.722-10.525-2.4-17.75,3.217-24.382,10.492q-67.389,73.918-134.929,147.7C3984.477-560.34,3958.239-531.584,3931.2-501.967Zm.511,67.7-34.719-31.614c-6.2,18.778-11.766,35.628-18.1,54.812Z" transform="translate(-3664.7 797.602)" fill="#0090df"/>
  </g>
</svg>
