<?xml version="1.0" encoding="utf-8"?>
<!-- Generator: Adobe Illustrator 25.2.1, SVG Export Plug-In . SVG Version: 6.00 Build 0)  -->
<svg version="1.1" file='blue'  id="Capa_1" xmlns="http://www.w3.org/2000/svg" xmlns:xlink="http://www.w3.org/1999/xlink" x="0px" y="0px"
	 viewBox="0 0 612 1008" style="enable-background:new 0 0 612 1008;" xml:space="preserve">
<style type="text/css">
	.st0{fill:#E30613;}
</style>
<g>
	<path class="st0" d="M3003.93-616.45c124.71,0,248.96,0,374.13,0c-1.83,27.21-3.51,53.74-5.42,80.25
		c-4.59,63.48-9.41,126.95-13.89,190.44c-2.86,40.56-30.81,69.82-71.27,70.49c-64.48,1.06-129,1.07-193.47,0
		c-40.46-0.67-68.39-29.96-71.26-70.51c-6.13-86.43-12.54-172.84-18.79-259.26C3003.7-608.62,3003.93-612.23,3003.93-616.45z
		 M3143.91-384.58c-2.7-38.87-5.36-77.75-8.1-116.62c-1.36-19.23-2.65-38.47-4.4-57.67c-1.05-11.51-9.94-19.18-20.53-18.65
		c-10.57,0.53-18.42,9.05-18.62,20.57c-0.08,4.5,0.43,9.01,0.75,13.51c3.84,53.6,7.81,107.18,11.48,160.79
		c1.33,19.47,8.33,29.29,21.44,28.56C3139.23-354.82,3144.81-364.27,3143.91-384.58z M3237.61-386.36c-1.07,0.42-2.14,0.83-3.2,1.25
		c3.48,9,4.7,20.24,10.93,26.52c11.42,11.51,29.38,1.76,31.04-16.16c1.93-20.82,2.97-41.73,4.45-62.6
		c2.79-39.28,5.84-78.54,8.31-117.84c0.83-13.11-7.61-22.15-19.21-22.33c-11.06-0.17-19.08,7.88-20,20.56
		C3245.77-500.1,3241.71-443.22,3237.61-386.36z"/>
	<path class="st0" d="M3079.92-774.9c0-7.48-0.19-13.19,0.03-18.88c1.03-26.94,18.91-46.28,45.72-46.79
		c43.52-0.83,87.07-0.86,130.59,0.04c26.26,0.55,44.06,19.74,45.26,45.95c0.28,6.06,0.04,12.14,0.04,19.68
		c19.19,0,37.13-0.04,55.06,0.01c32.62,0.09,51.05,18.53,51.14,51.19c0.05,18.89,0.11,37.78-0.02,56.68
		c-0.12,16.3-6.93,23.42-23.15,23.43c-129.37,0.1-258.74,0.1-388.1-0.01c-15.54-0.01-22.58-7.22-22.71-22.62
		c-0.18-20.53-0.26-41.07,0.01-61.6c0.37-27.68,19.82-46.75,47.83-47.04C3040.44-775.05,3059.26-774.9,3079.92-774.9z
		 M3262.11-775.49c0-5.86-0.16-10.36,0.03-14.85c0.33-7.87-3.47-11.05-11.13-11.03c-40.14,0.1-80.28,0.1-120.42,0
		c-7.59-0.02-11.56,2.98-11.24,10.92c0.19,4.79,0.04,9.59,0.04,14.96C3167.26-775.49,3214.16-775.49,3262.11-775.49z"/>
</g>
</svg>
