<?xml version="1.0" encoding="utf-8"?>
<!-- Generator: Adobe Illustrator 25.2.1, SVG Export Plug-In . SVG Version: 6.00 Build 0)  -->
<svg version="1.1" id="Capa_1" xmlns="http://www.w3.org/2000/svg" xmlns:xlink="http://www.w3.org/1999/xlink" x="0px" y="0px"
	 viewBox="0 0 612 1008" style="enable-background:new 0 0 612 1008;" xml:space="preserve">
<style type="text/css">
	.st0{fill:#009FE3;}
</style>
<g>
	<path class="st0" d="M3685.67-525c0-45.5-1.14-91.04,0.31-136.5c1.52-47.62,42.97-88.21,90.63-89.02
		c64.02-1.09,128.06-0.53,192.1-0.48c14.6,0.01,23.69,8.63,23.62,21.42c-0.07,12.76-9.2,21.42-23.82,21.53
		c-33.8,0.24-67.61,0.08-101.42,0.09c-27.3,0-54.61-0.12-81.91,0.04c-33.9,0.19-56.65,22.06-56.78,55.81
		c-0.34,84.84-0.31,169.68-0.02,254.52c0.12,34.15,23.21,56.63,57.22,56.66c84.84,0.08,169.68,0.09,254.52,0
		c34.15-0.04,57.37-23.41,57.42-57.71c0.09-58.84-0.01-117.67,0.06-176.51c0.02-15.75,9.81-25.23,24.08-23.69
		c11.39,1.23,18.78,10.1,18.82,23.24c0.11,36.73,0.04,73.46,0.04,110.19c0,22.75,0.09,45.51-0.02,68.26
		c-0.28,56.47-42.97,99.09-99.51,99.16c-85.49,0.1-170.98,0.09-256.47,0c-54.78-0.06-96.04-39.46-99.13-94.39
		c-0.09-1.62-0.24-3.25-0.24-4.87c-0.01-42.58-0.01-85.16-0.01-127.75C3685.32-525,3685.5-525,3685.67-525z"/>
	<path class="st0" d="M4182.71-733.14c-0.74,16.08-6.74,29.69-17.46,41.42c-59.16,64.78-118.29,129.58-177.43,194.37
		c-8.76,9.6-18.26,18.62-26.19,28.86c-12.94,16.72-29.23,27.87-48.92,35.22c-16.67,6.22-32.73,14.1-49.08,21.21
		c-12.3,5.36-24.27,5.18-34.57-4.05c-10.26-9.19-12.16-20.94-7.87-33.82c8.3-24.89,16.45-49.83,25.07-74.61
		c1.54-4.44,4.51-8.68,7.72-12.2c72.9-79.95,145.86-159.84,218.99-239.58c17-18.54,38.34-25.48,62.75-18.83
		c23,6.27,38.09,21.53,44.42,44.74C4181.66-744.82,4181.89-738.9,4182.71-733.14z M3916.34-541.13
		c10.2,9.19,19.47,17.55,28.65,25.81c3.26-3.16,5.7-5.3,7.88-7.68c37.51-41,75-82.03,112.47-123.07
		c22.57-24.72,45.22-49.37,67.58-74.28c11.31-12.6,6.31-30.02-9.37-33.59c-9.13-2.08-15.4,2.79-21.15,9.1
		c-38.97,42.75-78.03,85.42-117.05,128.13C3962.56-591.77,3939.8-566.83,3916.34-541.13z M3916.78-482.41
		c-10.25-9.34-19.63-17.87-30.12-27.43c-5.38,16.29-10.21,30.91-15.7,47.55C3887.36-469.49,3901.44-475.67,3916.78-482.41z"/>
</g>
</svg>
