<svg xmlns="http://www.w3.org/2000/svg" width="46.015" height="46.952" viewBox="0 0 46.015 46.952">
  <path id="Trazado_11" data-name="Trazado 11" d="M916.668,2777.868a13.776,13.776,0,0,1-13.543-14.949,13.342,13.342,0,0,1,3.771-8.479c6.529-6.675,12.983-13.432,19.678-19.931,3.789-3.678,8.525-4.465,13.45-2.668a13.93,13.93,0,0,1,5.22,22.618q-9.646,9.968-19.447,19.781A12.731,12.731,0,0,1,916.668,2777.868Zm16.721-17.653c3.117-3.088,6.346-6.055,9.3-9.286a8.816,8.816,0,0,0,1.775-8.89,9.312,9.312,0,0,0-15.76-3.8c-2.718,2.707-5.382,5.47-8.068,8.211-.139.142-.255.305-.35.423Zm-26.111,3.458c0,.69.156,1.316.968,1.367s1.1-.5,1.122-1.23a7.637,7.637,0,0,1,2.391-5.33c1.917-1.92,3.808-3.868,5.706-5.811.665-.682.776-1.376.262-1.813-.658-.561-1.2-.229-1.715.291-1.962,2.006-3.933,4-5.893,6.008A9.7,9.7,0,0,0,907.278,2763.673Z" transform="translate(-903.078 -2730.916)" fill="#fff"/>
</svg>
