<svg xmlns="http://www.w3.org/2000/svg" width="30.782" height="58.224" viewBox="0 0 30.782 58.224">
  <g id="Grupo_12" data-name="Grupo 12" transform="translate(0 0)">
    <path id="Trazado_8" data-name="Trazado 8" d="M454.706,2734.443a3.17,3.17,0,0,1-2.165,2.868c-3.528,1.518-7.039,3.08-10.579,4.568-.777.328-1.059.637-.787,1.54.505,1.676.9,3.391,1.263,5.105a2.335,2.335,0,0,0,1.409,1.784c4.088,1.967,8.147,4,12.212,6.013,2.925,1.451,3.305,3.851.957,6.12-3.483,3.365-6.967,6.73-10.486,10.056a1.787,1.787,0,0,0-.578,1.746q.742,5.573,1.406,11.159a3.287,3.287,0,0,1-2.761,3.706,3.18,3.18,0,0,1-3.572-2.857c-.56-4.021-1.069-8.052-1.6-12.078a2.77,2.77,0,0,0-.09-.694,6.2,6.2,0,0,0-.5-.832c-.244.249-.615.454-.711.752-.673,2.073-1.287,4.168-1.924,6.253q-1.023,3.353-2.054,6.7c-.657,2.125-2.273,3.173-4.051,2.638-1.9-.571-2.744-2.3-2.146-4.478,2.839-10.33,5.7-20.654,8.511-30.992a4.641,4.641,0,0,0,.02-2.155c-.759-3.344-1.608-6.668-2.406-10a3.216,3.216,0,0,1,1.913-4.013c4.711-2.074,9.429-4.135,14.166-6.147C452.424,2730.243,454.7,2731.77,454.706,2734.443Zm-10.557,31.8c.113.185.254.668.462.7a1.644,1.644,0,0,0,1.23-.247c1.986-1.828,3.93-3.7,5.862-5.594.738-.72.635-1.351-.271-1.835-1.014-.541-2.048-1.043-3.082-1.545-1.1-.536-1.493-.381-1.866.793-.73,2.291-1.434,4.591-2.144,6.888C444.271,2765.623,444.235,2765.855,444.149,2766.239Z" transform="translate(-427.765 -2730.916)" fill="#fff"/>
    <path id="Trazado_9" data-name="Trazado 9" d="M473.245,2765.659a5.028,5.028,0,0,1-5-5.164,5.034,5.034,0,1,1,10.064.063A5.032,5.032,0,0,1,473.245,2765.659Z" transform="translate(-451.81 -2745.245)" fill="#fff"/>
  </g>
</svg>
